<?xml version="1.0" encoding="UTF-8"?>
<svg version="1.1" xmlns="http://www.w3.org/2000/svg" width="512" height="512">
<path d="M0 0 C1.67236089 -0.00692445 3.34471263 -0.01646114 5.0170455 -0.02836347 C9.58465507 -0.05328924 14.15150742 -0.04108708 18.71911883 -0.02244616 C23.6558397 -0.00882654 28.59243367 -0.02984663 33.52912903 -0.04632568 C43.18907262 -0.07296387 52.84873604 -0.06726134 62.50869048 -0.04984984 C70.36158582 -0.0362831 78.21440281 -0.03446893 86.06730652 -0.04099274 C87.18623727 -0.04191214 88.30516802 -0.04283153 89.45800576 -0.04377879 C91.7313036 -0.0456972 94.00460141 -0.04764248 96.27789921 -0.04961434 C117.57975582 -0.06671143 138.88145734 -0.04707076 160.18328851 -0.01481214 C178.44945912 0.01199331 196.71540091 0.00733682 214.98156738 -0.02032471 C236.208738 -0.05245534 257.4357728 -0.06506358 278.66296434 -0.04665112 C280.9277601 -0.04473989 283.19255588 -0.04285366 285.45735168 -0.04099274 C286.57158794 -0.04006708 287.68582421 -0.03914143 288.8338252 -0.03818773 C296.67458432 -0.03301364 304.51525707 -0.04173757 312.35600281 -0.05587006 C321.91519041 -0.07272168 331.47408251 -0.06809475 341.03323638 -0.03618559 C345.90776316 -0.02044874 350.78179777 -0.01418704 355.65632057 -0.03408051 C360.12373418 -0.05203637 364.59020218 -0.04201006 369.0575307 -0.01021519 C370.66840176 -0.00354535 372.27935367 -0.00684978 373.89017218 -0.02146992 C384.76196907 -0.11253031 393.95610563 1.25406272 402.48663163 8.70460188 C412.17405366 18.56443322 411.82477833 30.58872669 411.71643066 43.52215576 C411.71530097 45.4152321 411.71593842 47.30831018 411.71820068 49.2013855 C411.71934401 54.31648802 411.6958966 59.43121207 411.66790485 64.54622698 C411.64282742 69.90068146 411.6405442 75.25514551 411.63580322 80.60964966 C411.62339206 90.73836656 411.59059562 100.86690989 411.55040526 110.99555051 C411.50562964 122.53120951 411.48368595 134.06687697 411.46362352 145.60260129 C411.42186136 169.32246421 411.3515455 193.04217329 411.2623291 216.76190186 C412.27009399 216.839729 412.27009399 216.839729 413.29821777 216.91912842 C414.1874292 216.9961499 415.07664062 217.07317139 415.99279785 217.15252686 C416.87089111 217.22503662 417.74898438 217.29754639 418.65368652 217.37225342 C425.24520259 218.35681679 429.92254703 221.83566275 434.2623291 226.76190186 C435.1285791 227.66940186 435.9948291 228.57690186 436.8873291 229.51190186 C443.53546162 237.85024306 442.72098423 248.34494645 442.69592285 258.44158936 C442.70049317 260.06147478 442.70580125 261.68135828 442.71180725 263.30123901 C442.7207058 266.68517974 442.71835316 270.06888407 442.70837402 273.45281982 C442.69689658 277.76204295 442.71709323 282.07044508 442.74629116 286.37956047 C442.76475167 289.72216873 442.76434111 293.06458386 442.75865364 296.40723038 C442.75850158 297.99465205 442.76444901 299.5820878 442.77694511 301.1694603 C442.85818544 313.1803894 441.94765735 323.92339462 433.2623291 333.03924561 C426.3971939 338.95237964 420.15829647 340.82322664 411.2623291 340.76190186 C411.26601627 341.51543631 411.26970345 342.26897076 411.27350235 343.04533958 C411.36196586 361.40824851 411.42809334 379.77111472 411.46957779 398.13419151 C411.49017429 407.0145675 411.51823898 415.89480096 411.56408691 424.77508545 C411.60404411 432.51810449 411.62978307 440.26102026 411.63868308 448.00413954 C411.64388285 452.10142469 411.65604288 456.19841451 411.68524933 460.29560471 C411.71255917 464.15831607 411.720743 468.02061266 411.71475983 471.88341141 C411.71585315 473.29505931 411.72371416 474.70672222 411.739151 476.11828613 C411.84620702 486.41978463 410.68351733 494.7112462 404.2623291 503.01190186 C397.00812827 510.39117891 388.56309135 513.369233 378.37075356 513.55582316 C376.08827151 513.56467613 373.80704908 513.54451919 371.5246582 513.52380371 C369.85229731 513.53072816 368.17994557 513.54026485 366.50761271 513.55216718 C361.94000313 513.57709295 357.37315079 513.56489079 352.80553937 513.54624987 C347.86881851 513.53263025 342.93222453 513.55365034 337.99552917 513.57012939 C328.33558558 513.59676758 318.67592217 513.59106505 309.01596773 513.57365355 C301.16307238 513.56008681 293.31025539 513.55827264 285.45735168 513.56479645 C284.33842094 513.56571585 283.21949019 513.56663524 282.06665245 513.5675825 C279.79335461 513.56950091 277.52005679 513.57144619 275.246759 513.57341805 C253.94490239 513.59051514 232.64320086 513.57087447 211.34136969 513.53861585 C193.07519909 513.5118104 174.80925729 513.51646689 156.54309082 513.54412842 C135.3159202 513.57625906 114.0888854 513.58886729 92.86169386 513.57045484 C90.5968981 513.5685436 88.33210232 513.56665738 86.06730652 513.56479645 C84.95307026 513.56387079 83.838834 513.56294514 82.690833 513.56199144 C74.85007389 513.55681735 67.00940114 513.56554128 59.1686554 513.57967377 C49.60946779 513.59652539 40.0505757 513.59189847 30.49142182 513.5599893 C25.61689505 513.54425245 20.74286043 513.53799076 15.86833763 513.55788422 C11.40092402 513.57584008 6.93445602 513.56581377 2.4671275 513.5340189 C0.85625645 513.52734906 -0.75469546 513.53065349 -2.36551398 513.54527363 C-13.23964719 513.63635359 -22.19296181 512.19039717 -30.87541437 504.98875499 C-40.71785363 494.8709736 -40.31502694 482.13569199 -40.24560547 468.97381592 C-40.25021894 467.06649933 -40.25657485 465.15918629 -40.26451445 463.25188065 C-40.28116948 458.03034566 -40.27297873 452.80910415 -40.26056957 447.58756828 C-40.25150577 441.94876012 -40.26549542 436.31000182 -40.27648926 430.67120361 C-40.29426482 419.63254302 -40.29043874 408.5939913 -40.27883869 397.55532646 C-40.26980088 388.58303815 -40.26858189 379.61078033 -40.27293396 370.63848877 C-40.27354689 369.36093822 -40.27415982 368.08338767 -40.27479133 366.76712346 C-40.27607025 364.17170937 -40.2773671 361.57629529 -40.2786817 358.98088121 C-40.28975969 335.34377002 -40.27827629 311.70672888 -40.25731131 288.06962901 C-40.23832973 266.50478194 -40.24002828 244.94002936 -40.25915527 223.37518311 C-40.28058697 199.1310125 -40.28898607 174.88690875 -40.27670622 150.6427269 C-40.27543204 148.05692292 -40.27417455 145.47111894 -40.27293396 142.88531494 C-40.27231686 141.6130887 -40.27169976 140.34086245 -40.27106395 139.03008389 C-40.26761195 130.06978667 -40.27343619 121.10952299 -40.28285217 112.14923096 C-40.29407678 101.22788736 -40.29102227 90.30665874 -40.2697292 79.38532829 C-40.25922513 73.81434171 -40.25508617 68.24354676 -40.26832581 62.67256165 C-40.28026858 57.57005814 -40.2736558 52.46792342 -40.2524156 47.36545324 C-40.24795756 45.52239899 -40.25019778 43.6793134 -40.25991875 41.83627939 C-40.31993227 29.50990856 -40.01149728 17.92671345 -30.87541437 8.53504872 C-21.41284562 0.68634079 -11.71130433 -0.10629435 0 0 Z " fill="#56687C" transform="translate(54.7376708984375,-0.76190185546875)"/>
<path d="M0 0 C16.09063894 -0.14055551 32.18107682 -0.24615846 48.27218246 -0.31087303 C55.74465281 -0.34172836 63.21674033 -0.38374754 70.68896484 -0.45263672 C77.20658557 -0.51269609 83.72392887 -0.55120957 90.24181867 -0.56453097 C93.68881179 -0.57231047 97.1350117 -0.59041475 100.58174896 -0.63438034 C104.44233861 -0.68321924 108.30217308 -0.68392296 112.16308594 -0.68115234 C113.28878494 -0.702724 114.41448395 -0.72429565 115.57429504 -0.746521 C124.597822 -0.6768511 132.17598776 1.94702576 139.1529808 7.80886269 C148.76669848 17.91246429 148.56409146 29.63079219 148.45410156 42.76025391 C148.45297187 44.65333024 148.45360932 46.54640832 148.45587158 48.43948364 C148.4570149 53.55458616 148.4335675 58.66931022 148.40557575 63.78432512 C148.38049832 69.13877961 148.3782151 74.49324365 148.37347412 79.8477478 C148.36106296 89.97646471 148.32826652 100.10500804 148.28807616 110.23364866 C148.24330054 121.76930765 148.22135685 133.30497512 148.20129442 144.84069943 C148.15953226 168.56056236 148.0892164 192.28027143 148 216 C149.00776489 216.07782715 149.00776489 216.07782715 150.03588867 216.15722656 C151.36970581 216.27275879 151.36970581 216.27275879 152.73046875 216.390625 C153.60856201 216.46313477 154.48665527 216.53564453 155.39135742 216.61035156 C161.98287349 217.59491494 166.66021793 221.07376089 171 226 C171.86625 226.9075 172.7325 227.815 173.625 228.75 C180.27313252 237.0883412 179.45865513 247.5830446 179.43359375 257.6796875 C179.43816407 259.29957293 179.44347215 260.91945642 179.44947815 262.53933716 C179.45837669 265.92327789 179.45602406 269.30698222 179.44604492 272.69091797 C179.43456747 277.0001411 179.45476413 281.30854322 179.48396206 285.61765862 C179.50242257 288.96026687 179.50201201 292.30268201 179.49632454 295.64532852 C179.49617248 297.2327502 179.5021199 298.82018594 179.51461601 300.40755844 C179.59585634 312.41848754 178.68532825 323.16149276 170 332.27734375 C163.1348648 338.19047778 156.89596737 340.06132479 148 340 C148.00368717 340.75353445 148.00737434 341.5070689 148.01117325 342.28343773 C148.09963676 360.64634665 148.16576424 379.00921286 148.20724869 397.37228966 C148.22784519 406.25266565 148.25590988 415.13289911 148.30175781 424.01318359 C148.341715 431.75620263 148.36745397 439.49911841 148.37635398 447.24223769 C148.38155375 451.33952284 148.39371378 455.43651266 148.42292023 459.53370285 C148.45023007 463.39641422 148.45841389 467.25871081 148.45243073 471.12150955 C148.45352405 472.53315745 148.46138506 473.94482036 148.4768219 475.35638428 C148.59327045 486.56168208 147.10422762 495.83845493 139.15190506 504.19113731 C130.90145617 511.12635458 122.38489258 512.87741816 111.88769531 512.68115234 C110.63748596 512.6820285 109.38727661 512.68290466 108.09918213 512.68380737 C104.71068268 512.68037287 101.32444818 512.65054311 97.93634892 512.60836363 C94.38103641 512.57054417 90.82568527 512.56730696 87.27020264 512.56021118 C80.55544984 512.54165297 73.84129171 512.49254064 67.12679935 512.43211424 C59.47499775 512.36476541 51.82316593 512.3319893 44.17114115 512.30194163 C28.4470845 512.23943157 12.7236193 512.13407548 -3 512 C-3 511.67 -3 511.34 -3 511 C-1.845 510.773125 -0.69 510.54625 0.5 510.3125 C9.33345302 508.06511973 15.15504114 502.74532086 20.12593418 495.31757545 C24.42018598 487.31037075 23.55092393 478.25759687 23.50120544 469.43896484 C23.50510032 467.5319496 23.51074225 465.62493725 23.51797634 463.71793175 C23.5327221 458.48801066 23.52255484 453.25839093 23.50823963 448.02847958 C23.49712881 442.38422609 23.50907282 436.74001484 23.51808167 431.09576416 C23.53201534 420.0427901 23.52445695 408.98993027 23.50940608 397.93696165 C23.49254646 385.06578156 23.4957562 372.19462994 23.49950016 359.32344222 C23.5055566 335.664344 23.48977554 312.00531682 23.46431253 288.34623584 C23.441198 266.75489331 23.43580953 245.16361774 23.44604492 223.57226562 C23.448647 218.04312137 23.45123203 212.51397711 23.45364285 206.98483276 C23.45394029 206.30409914 23.45423774 205.62336552 23.4545442 204.92200361 C23.46216152 186.87266207 23.45568562 168.82332845 23.44494683 150.77398872 C23.44342098 148.18650437 23.44190063 145.59902001 23.44038582 143.01153564 C23.439628 141.738438 23.43887019 140.46534035 23.43808941 139.15366399 C23.43334645 130.18143738 23.43519811 121.20922589 23.43945122 112.23699951 C23.44437762 101.30312132 23.43839462 90.3693124 23.41855692 79.43545008 C23.40868455 73.85665522 23.4035793 68.27796583 23.41144943 62.69916534 C23.41850708 57.59180599 23.41169943 52.48465945 23.3938458 47.37732816 C23.38980189 45.5302124 23.39080023 43.68307725 23.39736467 41.83596873 C23.43667788 29.73809 23.45621114 18.76769777 14.50390625 9.44140625 C10.1618899 5.42027795 5.49203751 3.11711197 0 1 C0 0.67 0 0.34 0 0 Z " fill="#3D5168" transform="translate(318,0)"/>
<path d="M0 0 C0 168.96 0 337.92 0 512 C-60.49152542 512 -60.49152542 512 -71 502.3125 C-78.93344227 492.00065064 -78.57316532 480.57925575 -78.50793457 468.21191406 C-78.51254804 466.30459747 -78.51890395 464.39728444 -78.52684355 462.48997879 C-78.54349858 457.2684438 -78.53530783 452.04720229 -78.52289867 446.82566643 C-78.51383487 441.18685826 -78.52782452 435.54809996 -78.53881836 429.90930176 C-78.55659392 418.87064117 -78.55276785 407.83208944 -78.5411678 396.79342461 C-78.53212998 387.8211363 -78.53091099 378.84887847 -78.53526306 369.87658691 C-78.53587599 368.59903636 -78.53648893 367.32148581 -78.53712043 366.00522161 C-78.53839935 363.40980751 -78.5396962 360.81439343 -78.5410108 358.21897936 C-78.55208879 334.58186817 -78.54060539 310.94482702 -78.51964041 287.30772716 C-78.50065884 265.74288008 -78.50235738 244.1781275 -78.52148438 222.61328125 C-78.54291607 198.36911064 -78.55131517 174.12500689 -78.53903532 149.88082504 C-78.53776114 147.29502107 -78.53650366 144.70921708 -78.53526306 142.12341309 C-78.53464596 140.85118684 -78.53402886 139.5789606 -78.53339306 138.26818204 C-78.52994105 129.30788481 -78.5357653 120.34762113 -78.54518127 111.3873291 C-78.55640588 100.4659855 -78.55335137 89.54475688 -78.5320583 78.62342644 C-78.52155424 73.05243985 -78.51741527 67.48164491 -78.53065491 61.91065979 C-78.54259768 56.80815629 -78.5359849 51.70602157 -78.5147447 46.60355139 C-78.51028667 44.76049713 -78.51252689 42.91741155 -78.52224785 41.07437754 C-78.57827344 29.56710082 -78.33559323 19.22226812 -71 9.6875 C-50.75651065 -8.97446675 -28.65009471 0 0 0 Z " fill="#233952" transform="translate(93,0)"/>
<path d="M0 0 C20.46 0 40.92 0 62 0 C62 10.23 62 20.46 62 31 C64.97 31.33 67.94 31.66 71 32 C79.39264853 34.6366806 85.82730242 40.18949132 90.02980042 47.88598633 C93.69151674 55.82878935 93.6015659 63.70396584 93.56640625 72.26953125 C93.57165465 73.83835719 93.57793552 75.40717998 93.58518982 76.97599792 C93.59554736 80.25148447 93.59110216 83.52653536 93.57641602 86.80200195 C93.55926529 90.96435157 93.58270067 95.12531574 93.61790562 99.28751087 C93.64005238 102.52472281 93.63839639 105.7616123 93.6301403 108.99887657 C93.62932961 110.53161828 93.63602119 112.06438584 93.65091133 113.59705544 C93.74725982 125.3099557 92.48439269 136.41673457 84.3125 145.5 C77.15234112 151.86458568 71.64818695 154 62 154 C62 164.23 62 174.46 62 185 C51.77 185 41.54 185 31 185 C31 225.92 31 266.84 31 309 C41.23 309 51.46 309 62 309 C62 355.53 62 402.06 62 450 C41.54 450 21.08 450 0 450 C0 301.5 0 153 0 0 Z " fill="#FEFEFE" transform="translate(373,31)"/>
<path d="M0 0 C20.46 0 40.92 0 62 0 C62 10.23 62 20.46 62 31 C64.97 31.33 67.94 31.66 71 32 C79.39264853 34.6366806 85.82730242 40.18949132 90.02980042 47.88598633 C93.69151674 55.82878935 93.6015659 63.70396584 93.56640625 72.26953125 C93.57165465 73.83835719 93.57793552 75.40717998 93.58518982 76.97599792 C93.59554736 80.25148447 93.59110216 83.52653536 93.57641602 86.80200195 C93.55926529 90.96435157 93.58270067 95.12531574 93.61790562 99.28751087 C93.64005238 102.52472281 93.63839639 105.7616123 93.6301403 108.99887657 C93.62932961 110.53161828 93.63602119 112.06438584 93.65091133 113.59705544 C93.74656557 125.22555607 92.56001119 136.55308112 84.3125 145.5 C59.7053582 165.47101364 35.74418263 154 0 154 C0 103.18 0 52.36 0 0 Z " fill="#53A4FF" transform="translate(373,31)"/>
<path d="M0 0 C0.33 0 0.66 0 1 0 C1 18.81 1 37.62 1 57 C4.3 57.33 7.6 57.66 11 58 C16.53098845 60.24445908 20.02109601 62.48340628 24 67 C24.86625 67.9075 25.7325 68.815 26.625 69.75 C33.27313252 78.0883412 32.45865513 88.5830446 32.43359375 98.6796875 C32.43816407 100.29957293 32.44347215 101.91945642 32.44947815 103.53933716 C32.45837669 106.92327789 32.45602406 110.30698222 32.44604492 113.69091797 C32.43456747 118.0001411 32.45476413 122.30854322 32.48396206 126.61765862 C32.50242257 129.96026687 32.50201201 133.30268201 32.49632454 136.64532852 C32.49617248 138.2327502 32.5021199 139.82018594 32.51461601 141.40755844 C32.59585634 153.41848754 31.68532825 164.16149276 23 173.27734375 C16.29770576 179.05021828 9.9288261 181.12943216 1.21191406 181.11352539 C0.52749111 181.11364593 -0.15693184 181.11376646 -0.86209488 181.11389065 C-3.06955506 181.11314643 -5.27692999 181.10554063 -7.484375 181.09765625 C-8.85042276 181.09618531 -10.21647109 181.09516554 -11.58251953 181.09460449 C-16.63835497 181.08936924 -21.69417833 181.07540799 -26.75 181.0625 C-38.0525 181.041875 -49.355 181.02125 -61 181 C-61 140.08 -61 99.16 -61 57 C-50.77 57 -40.54 57 -30 57 C-30 46.77 -30 36.54 -30 26 C-26.7 25.34 -23.4 24.68 -20 24 C-12.48870716 20.9730611 -6.92688411 17.16518383 -3.453125 9.65625 C-2.21613951 6.45954592 -1.06320643 3.25821326 0 0 Z " fill="#FE4E51" transform="translate(465,159)"/>
<path d="M0 0 C10.23 0 20.46 0 31 0 C31.09040813 19.12410129 31.16404463 38.24802869 31.20724869 57.37228966 C31.22784519 66.25266565 31.25590988 75.13289911 31.30175781 84.01318359 C31.341715 91.75620263 31.36745397 99.49911841 31.37635398 107.24223769 C31.38155375 111.33952284 31.39371378 115.43651266 31.42292023 119.53370285 C31.45023007 123.39641422 31.45841389 127.25871081 31.45243073 131.12150955 C31.45352405 132.53315745 31.46138506 133.94482036 31.4768219 135.35638428 C31.59280073 146.51648302 30.14149158 155.91885788 22.11737061 164.19076538 C11.16531918 173.54899041 -0.30318784 172.79987955 -13.953125 172.5859375 C-16.06588529 172.57472792 -18.17866132 172.56619608 -20.29144287 172.56021118 C-25.81553238 172.53745165 -31.33865475 172.47864053 -36.86236572 172.4119873 C-42.51357953 172.35028549 -48.1649517 172.32313686 -53.81640625 172.29296875 C-64.87802591 172.22888391 -75.93893211 172.12666222 -87 172 C-84.41031136 170.27354091 -82.07347822 169.12890493 -79.25 167.875 C-71.4546397 164.00577007 -66.79500952 158.23792278 -64 150 C-63.34 147.36 -62.68 144.72 -62 142 C-41.54 142 -21.08 142 0 142 C0 95.14 0 48.28 0 0 Z " fill="#09213D" transform="translate(435,340)"/>
<path d="M0 0 C0.33 0 0.66 0 1 0 C1 18.81 1 37.62 1 57 C4.3 57.33 7.6 57.66 11 58 C16.53098845 60.24445908 20.02109601 62.48340628 24 67 C24.86625 67.9075 25.7325 68.815 26.625 69.75 C33.27313252 78.0883412 32.45865513 88.5830446 32.43359375 98.6796875 C32.43816407 100.29957293 32.44347215 101.91945642 32.44947815 103.53933716 C32.45837669 106.92327789 32.45602406 110.30698222 32.44604492 113.69091797 C32.43456747 118.0001411 32.45476413 122.30854322 32.48396206 126.61765862 C32.50242257 129.96026687 32.50201201 133.30268201 32.49632454 136.64532852 C32.49617248 138.2327502 32.5021199 139.82018594 32.51461601 141.40755844 C32.59585634 153.41848754 31.68532825 164.16149276 23 173.27734375 C15.92875729 179.36800397 9.31752145 181.16293862 0.171875 181.09765625 C-0.57713074 181.0962413 -1.32613647 181.09482635 -2.09783936 181.09336853 C-4.48193412 181.08778659 -6.86593378 181.07523745 -9.25 181.0625 C-10.86979031 181.05748266 -12.48958209 181.05292016 -14.109375 181.04882812 C-18.07295312 181.03782308 -22.03646045 181.02057091 -26 181 C-26 180.67 -26 180.34 -26 180 C-24.865625 179.79375 -23.73125 179.5875 -22.5625 179.375 C-14.94129253 177.43260376 -8.64915091 172.82296008 -4.31604004 166.2706604 C0.76983986 157.4956188 0.47429658 147.75270575 0.46875 137.9140625 C0.47586914 136.36526216 0.48357063 134.8164644 0.49182129 133.26766968 C0.50519888 130.03514255 0.50686535 126.80285939 0.50097656 123.5703125 C0.4950858 119.45947322 0.52567653 115.34981714 0.56609344 111.23920631 C0.59213717 108.04409653 0.59483295 104.84926545 0.59120178 101.65406418 C0.5928774 100.14001874 0.60236703 98.6259582 0.62034607 97.11201859 C0.73543118 86.22546534 -0.66605835 76.58574562 -7.25 67.5625 C-14.01936046 61.25468684 -20.90133189 59.48145494 -30 57 C-30 46.77 -30 36.54 -30 26 C-26.7 25.34 -23.4 24.68 -20 24 C-12.48870716 20.9730611 -6.92688411 17.16518383 -3.453125 9.65625 C-2.21613951 6.45954592 -1.06320643 3.25821326 0 0 Z " fill="#FE2B58" transform="translate(465,159)"/>
<path d="M0 0 C10.23 0 20.46 0 31 0 C31 46.53 31 93.06 31 141 C20.44 141 9.88 141 -1 141 C-0.67 94.47 -0.34 47.94 0 0 Z " fill="#DDEBFD" transform="translate(404,340)"/>
<path d="M0 0 C12.43983536 -0.13944775 24.87948264 -0.24584799 37.31994247 -0.31087303 C43.09752906 -0.34209296 48.87457815 -0.38439511 54.65185547 -0.45263672 C60.234563 -0.51816216 65.81675581 -0.55377616 71.39981842 -0.56926346 C73.52237289 -0.58029039 75.6449014 -0.60182289 77.7672348 -0.63438034 C90.59808503 -0.82325836 100.89197882 -0.93367619 111.11566162 7.80923462 C118.62262516 15.54099613 120.45570562 24.22584129 120.45318604 34.73831177 C120.43277084 36.0781521 120.41190706 37.41798566 120.390625 38.7578125 C120.38314715 40.15598738 120.37746154 41.55417287 120.37347412 42.95236206 C120.35833872 46.5988963 120.31916535 50.24477405 120.2746582 53.89105225 C120.23344093 57.62519454 120.21540717 61.35944488 120.1953125 65.09375 C120.15265592 72.39612979 120.08455615 79.69797226 120 87 C118.27354091 84.41031136 117.12890493 82.07347822 115.875 79.25 C111.78017355 71.06034711 105.94024576 66.91189594 97.4921875 63.7265625 C94.71899396 62.91807661 91.84933879 62.4748898 89 62 C89 51.77 89 41.54 89 31 C84.524375 31.020625 80.04875 31.04125 75.4375 31.0625 C59.27460369 31.09824705 43.14920543 30.62982069 27 30 C26.80954102 29.25596924 26.61908203 28.51193848 26.42285156 27.74536133 C26.1647168 26.7633374 25.90658203 25.78131348 25.640625 24.76953125 C25.26212402 23.31317261 25.26212402 23.31317261 24.87597656 21.82739258 C22.2232841 13.26528794 16.50805884 7.66803483 8.9375 3.1875 C5.93434319 1.97345789 3.20924226 1.38205265 0 1 C0 0.67 0 0.34 0 0 Z " fill="#09213D" transform="translate(346,0)"/>
<path d="M0 0 C4.05248922 -0.12543419 8.10419727 -0.21518042 12.15820312 -0.2746582 C13.53145066 -0.29950103 14.90457035 -0.33338887 16.27734375 -0.37719727 C27.45128513 -0.72434091 37.29418895 0.54970465 45.9375 8.1875 C51.94115367 14.86638123 55.10030625 22.86750294 55.19287109 31.74365234 C55.20513733 32.76637238 55.20513733 32.76637238 55.21765137 33.80975342 C55.24247525 36.06847271 55.25902335 38.32712875 55.2734375 40.5859375 C55.27876118 41.36130482 55.28408485 42.13667213 55.28956985 42.93553543 C55.31630234 47.04832214 55.33566744 51.16107866 55.35009766 55.27392578 C55.36337357 58.65701722 55.39110656 62.0394964 55.43212891 65.42236328 C55.48185486 69.52376508 55.5062683 73.62461664 55.51332474 77.72630692 C55.5199776 79.27863193 55.53504095 80.83094758 55.55921555 82.3830986 C55.73249493 94.19294519 54.56550368 105.32936892 46.3125 114.5 C36.85763987 122.80525365 27.93929506 123.67963806 15.875 123.3125 C14.42712223 123.28736323 12.97920199 123.26455962 11.53125 123.24414062 C8.01993574 123.18962189 4.51024805 123.10365533 1 123 C2.9801217 121.0198783 4.30481966 120.31427797 6.8125 119.1875 C14.31567415 115.49008747 19.04212197 109.00548536 22.0504303 101.31448364 C23.09485482 97.66890821 23.27407071 94.59770154 23.30639648 90.80810547 C23.31472 90.11449417 23.32304352 89.42088287 23.33161926 88.70625305 C23.35559521 86.42650631 23.3644781 84.14704674 23.37109375 81.8671875 C23.38007293 80.26783164 23.38919499 78.66847658 23.39845276 77.06912231 C23.4149141 73.71858691 23.42263704 70.36815105 23.42553711 67.01757812 C23.43090312 62.75422998 23.46852058 58.49183733 23.51428127 54.22875786 C23.54424545 50.92386594 23.5512649 47.61919813 23.55226326 44.31418228 C23.55643107 42.74430107 23.56872472 41.17441701 23.58978081 39.60467148 C23.73033182 28.21570234 22.66168439 17.84608409 14.6875 9 C11.67705681 6.29257735 8.49035445 4.45673667 4.796875 2.82421875 C3 2 3 2 0 0 Z " fill="#1D89FD" transform="translate(411,62)"/>
<path d="M0 0 C20.46 0 40.92 0 62 0 C62 10.23 62 20.46 62 31 C41.54 31 21.08 31 0 31 C0 20.77 0 10.54 0 0 Z " fill="#DCEAFD" transform="translate(373,31)"/>
<path d="M0 0 C7.91105494 -0.06984721 15.82197868 -0.12298592 23.73326683 -0.15543652 C27.40773878 -0.17101978 31.08199806 -0.19212165 34.75634766 -0.22631836 C38.30956709 -0.25917666 41.86258338 -0.27690804 45.41594315 -0.28463173 C47.41541501 -0.29278316 49.4148064 -0.31615924 51.41415405 -0.33988953 C62.57103396 -0.34192742 71.7015047 1.11196791 80 9 C85.95201104 15.39739963 89.1032095 22.23353019 89 31 C68.30665968 31.13951531 47.6780888 30.80644761 27 30 C26.80954102 29.25596924 26.61908203 28.51193848 26.42285156 27.74536133 C26.1647168 26.7633374 25.90658203 25.78131348 25.640625 24.76953125 C25.26212402 23.31317261 25.26212402 23.31317261 24.87597656 21.82739258 C22.2232841 13.26528794 16.50805884 7.66803483 8.9375 3.1875 C5.93434319 1.97345789 3.20924226 1.38205265 0 1 C0 0.67 0 0.34 0 0 Z " fill="#233952" transform="translate(346,0)"/>
<path d="M0 0 C20.46 0 40.92 0 62 0 C60.51312977 10.40809159 58.05623051 16.89156132 50 24 C43.43692571 28.14251016 37.68635911 30.12951727 29.94628906 30.11352539 C28.72532532 30.11344986 27.50436157 30.11337433 26.24639893 30.11329651 C24.93274353 30.10813522 23.61908813 30.10297394 22.265625 30.09765625 C20.9037074 30.09579021 19.54178912 30.09436718 18.17987061 30.09336853 C14.60258111 30.08955803 11.02533248 30.07974032 7.44805908 30.06866455 C3.79480543 30.05841884 0.14154514 30.05386415 -3.51171875 30.04882812 C-10.67449776 30.03811669 -17.83724314 30.02105794 -25 30 C-22.41031136 28.27354091 -20.07347822 27.12890493 -17.25 25.875 C-9.4546397 22.00577007 -4.79500952 16.23792278 -2 8 C-1.34 5.36 -0.68 2.72 0 0 Z " fill="#223851" transform="translate(373,482)"/>
<path d="M0 0 C0.33 0 0.66 0 1 0 C1 18.81 1 37.62 1 57 C-9.23 57 -19.46 57 -30 57 C-30 46.77 -30 36.54 -30 26 C-26.7 25.34 -23.4 24.68 -20 24 C-12.48870716 20.9730611 -6.92688411 17.16518383 -3.453125 9.65625 C-2.21613951 6.45954592 -1.06320643 3.25821326 0 0 Z " fill="#09213E" transform="translate(465,159)"/>
<path d="M0 0 C20.46 0 40.92 0 62 0 C62 10.23 62 20.46 62 31 C51.77 31 41.54 31 31 31 C31 21.1 31 11.2 31 1 C20.77 1 10.54 1 0 1 C0 0.67 0 0.34 0 0 Z " fill="#D9E9FD" transform="translate(373,185)"/>
<path d="M0 0 C4.929375 -0.020625 9.85875 -0.04125 14.9375 -0.0625 C17.2731604 -0.07615601 17.2731604 -0.07615601 19.65600586 -0.09008789 C21.47950562 -0.09383423 21.47950562 -0.09383423 23.33984375 -0.09765625 C24.59144287 -0.10289307 25.84304199 -0.10812988 27.13256836 -0.11352539 C30 0 30 0 31 1 C31.08775605 3.14558827 31.10695219 5.29404421 31.09765625 7.44140625 C31.09515869 8.61646729 31.09266113 9.79152832 31.09008789 11.00219727 C31.08098389 12.50709717 31.07187988 14.01199707 31.0625 15.5625 C31.041875 20.326875 31.02125 25.09125 31 30 C20.77 30 10.54 30 0 30 C0 20.1 0 10.2 0 0 Z " fill="#FEFEFE" transform="translate(373,31)"/>
</svg>
